<svg xmlns="http://www.w3.org/2000/svg" viewBox="0 0 128 128">
  <defs>
    <linearGradient id="gold" x1="0" y1="0" x2="1" y2="1">
      <stop offset="0%" stop-color="#a88343" />
      <stop offset="45%" stop-color="#f0d9a0" />
      <stop offset="100%" stop-color="#8d6a35" />
    </linearGradient>
  </defs>
  <rect width="128" height="128" rx="18" fill="#000000" />
  <path
    d="M26 22h22c7 0 7 10 0 10h-3v64h3c7 0 7 10 0 10H26c-7 0-7-10 0-10h3V32h-3c-7 0-7-10 0-10z"
    fill="url(#gold)"
  />
  <path
    d="M80 22h22c7 0 7 10 0 10h-3v64h3c7 0 7 10 0 10H80c-7 0-7-10 0-10h3V32h-3c-7 0-7-10 0-10z"
    fill="url(#gold)"
  />
  <path
    d="M20 85c22-24 71-31 90-22-25-4-58 5-77 29-6 8-17 2-13-7z"
    fill="url(#gold)"
  />
</svg>
